<mxfile host="app.diagrams.net" agent="Mozilla/5.0 (Windows NT 10.0; Win64; x64) AppleWebKit/537.36 (KHTML, like Gecko) Chrome/138.0.0.0 Safari/537.36" version="28.0.6">
  <diagram id="C5RBs43oDa-KdzZeNtuy" name="Page-1">
    <mxGraphModel dx="3144" dy="4118" grid="1" gridSize="18" guides="1" tooltips="1" connect="1" arrows="1" fold="1" page="1" pageScale="1" pageWidth="827" pageHeight="1169" math="0" shadow="0">
      <root>
        <mxCell id="WIyWlLk6GJQsqaUBKTNV-0" />
        <mxCell id="WIyWlLk6GJQsqaUBKTNV-1" parent="WIyWlLk6GJQsqaUBKTNV-0" />
        <mxCell id="t1vl1GP2TdC1CwPDV5j0-184" value="" style="rounded=0;whiteSpace=wrap;html=1;fillColor=none;strokeColor=#990000;" vertex="1" parent="WIyWlLk6GJQsqaUBKTNV-1">
          <mxGeometry x="180" y="-1170" width="1188" height="1008" as="geometry" />
        </mxCell>
        <mxCell id="t1vl1GP2TdC1CwPDV5j0-144" value="" style="rounded=0;whiteSpace=wrap;html=1;fillColor=none;strokeColor=#990000;" vertex="1" parent="WIyWlLk6GJQsqaUBKTNV-1">
          <mxGeometry x="216" y="-18" width="1116" height="666" as="geometry" />
        </mxCell>
        <mxCell id="kagNfTHLd-AzjVWpu5lo-38" value="GestorCadastroReserva" style="swimlane;fontStyle=1;align=center;verticalAlign=top;childLayout=stackLayout;horizontal=1;startSize=26;horizontalStack=0;resizeParent=1;resizeLast=0;collapsible=1;marginBottom=0;rounded=0;shadow=0;strokeWidth=1;labelBackgroundColor=none;fillColor=light-dark(#DAE8FC,#0E1720);strokeColor=#6C8EBF;fontColor=default;perimeterSpacing=0;fontFamily=Open Sans;fontSource=https%3A%2F%2Ffonts.googleapis.com%2Fcss%3Ffamily%3DOpen%2BSans;fontSize=13;fillStyle=auto;swimlaneFillColor=none;" parent="WIyWlLk6GJQsqaUBKTNV-1" vertex="1">
          <mxGeometry x="467" y="17" width="410" height="126" as="geometry">
            <mxRectangle x="230" y="140" width="160" height="26" as="alternateBounds" />
          </mxGeometry>
        </mxCell>
        <mxCell id="kagNfTHLd-AzjVWpu5lo-40" value="" style="line;html=1;strokeWidth=1;align=center;verticalAlign=top;spacingTop=-1;spacingLeft=3;spacingRight=3;rotatable=1;labelPosition=right;points=[];portConstraint=eastwest;movable=1;resizable=1;deletable=1;editable=1;locked=0;connectable=1;labelBackgroundColor=none;fillColor=light-dark(#DAE8FC,#0E1720);strokeColor=#6C8EBF;fontColor=default;fontFamily=Open Sans;fontSource=https%3A%2F%2Ffonts.googleapis.com%2Fcss%3Ffamily%3DOpen%2BSans;rounded=0;shadow=0;fillStyle=auto;swimlaneFillColor=none;fontSize=13;fontStyle=1;horizontal=1;" parent="kagNfTHLd-AzjVWpu5lo-38" vertex="1">
          <mxGeometry y="26" width="410" height="28" as="geometry" />
        </mxCell>
        <mxCell id="6hpvukDDI9iX6RYFW3JA-12" value="+ cadastrarReserva (&#xa;          idEspaco: Int, inicio: DateTime, fim: DateTime, justificativa: String&#xa;) :  void" style="text;align=left;verticalAlign=top;spacingLeft=4;spacingRight=4;overflow=hidden;rotatable=0;points=[[0,0.5],[1,0.5]];portConstraint=eastwest;rounded=0;shadow=0;html=0;labelBackgroundColor=none;fontColor=default;fontFamily=Open Sans;fontSource=https%3A%2F%2Ffonts.googleapis.com%2Fcss%3Ffamily%3DOpen%2BSans;fontSize=12;fontStyle=0;horizontal=1;" parent="kagNfTHLd-AzjVWpu5lo-38" vertex="1">
          <mxGeometry y="54" width="410" height="54" as="geometry" />
        </mxCell>
        <mxCell id="kagNfTHLd-AzjVWpu5lo-48" value="ControladoraCadastroReserva" style="swimlane;fontStyle=1;align=center;verticalAlign=top;childLayout=stackLayout;horizontal=1;startSize=26;horizontalStack=0;resizeParent=1;resizeLast=0;collapsible=1;marginBottom=0;rounded=0;shadow=0;strokeWidth=1;labelBackgroundColor=none;fillColor=light-dark(#DAE8FC,#0E1720);strokeColor=#6C8EBF;fontColor=default;perimeterSpacing=0;fontFamily=Open Sans;fontSource=https%3A%2F%2Ffonts.googleapis.com%2Fcss%3Ffamily%3DOpen%2BSans;fontSize=13;fillStyle=auto;swimlaneFillColor=none;" parent="WIyWlLk6GJQsqaUBKTNV-1" vertex="1">
          <mxGeometry x="827" y="341.75" width="451" height="252.25" as="geometry">
            <mxRectangle x="230" y="140" width="160" height="26" as="alternateBounds" />
          </mxGeometry>
        </mxCell>
        <mxCell id="97XKhYF0tcPtRtX-NgZ1-0" value="&#xa;- idEspacoSelecionado :  Int" style="text;align=left;verticalAlign=top;spacingLeft=4;spacingRight=4;overflow=hidden;rotatable=0;points=[[0,0.5],[1,0.5]];portConstraint=eastwest;rounded=0;shadow=0;html=0;labelBackgroundColor=none;fontColor=default;fontFamily=Open Sans;fontSource=https%3A%2F%2Ffonts.googleapis.com%2Fcss%3Ffamily%3DOpen%2BSans;fontSize=12;fontStyle=0;horizontal=1;" parent="kagNfTHLd-AzjVWpu5lo-48" vertex="1">
          <mxGeometry y="26" width="451" height="42" as="geometry" />
        </mxCell>
        <mxCell id="kagNfTHLd-AzjVWpu5lo-52" value="" style="line;html=1;strokeWidth=1;align=center;verticalAlign=top;spacingTop=-1;spacingLeft=3;spacingRight=3;rotatable=1;labelPosition=right;points=[];portConstraint=eastwest;movable=1;resizable=1;deletable=1;editable=1;locked=0;connectable=1;labelBackgroundColor=none;fillColor=light-dark(#DAE8FC,#0E1720);strokeColor=#6C8EBF;fontColor=default;fontFamily=Open Sans;fontSource=https%3A%2F%2Ffonts.googleapis.com%2Fcss%3Ffamily%3DOpen%2BSans;rounded=0;shadow=0;fillStyle=auto;swimlaneFillColor=none;fontSize=12;fontStyle=0;horizontal=1;" parent="kagNfTHLd-AzjVWpu5lo-48" vertex="1">
          <mxGeometry y="68" width="451" height="30" as="geometry" />
        </mxCell>
        <mxCell id="6hpvukDDI9iX6RYFW3JA-5" value="&#xa;+ carregarTiposEspaco ( ) :  void" style="text;align=left;verticalAlign=top;spacingLeft=4;spacingRight=4;overflow=hidden;rotatable=0;points=[[0,0.5],[1,0.5]];portConstraint=eastwest;rounded=0;shadow=0;html=0;labelBackgroundColor=none;fontColor=default;fontFamily=Open Sans;fontSource=https%3A%2F%2Ffonts.googleapis.com%2Fcss%3Ffamily%3DOpen%2BSans;fontSize=12;fontStyle=0;horizontal=1;" parent="kagNfTHLd-AzjVWpu5lo-48" vertex="1">
          <mxGeometry y="98" width="451" height="45" as="geometry" />
        </mxCell>
        <mxCell id="kagNfTHLd-AzjVWpu5lo-59" value="+ carregarEspacosPorTipo (idTipoEspaco: String) :  void" style="text;align=left;verticalAlign=top;spacingLeft=4;spacingRight=4;overflow=hidden;rotatable=0;points=[[0,0.5],[1,0.5]];portConstraint=eastwest;rounded=0;shadow=0;html=0;labelBackgroundColor=none;fontColor=default;fontFamily=Open Sans;fontSource=https%3A%2F%2Ffonts.googleapis.com%2Fcss%3Ffamily%3DOpen%2BSans;fontSize=12;fontStyle=0;horizontal=1;" parent="kagNfTHLd-AzjVWpu5lo-48" vertex="1">
          <mxGeometry y="143" width="451" height="32" as="geometry" />
        </mxCell>
        <mxCell id="kagNfTHLd-AzjVWpu5lo-53" value="+ espacoSelecionado (idEspaco: String) :  void" style="text;align=left;verticalAlign=top;spacingLeft=4;spacingRight=4;overflow=hidden;rotatable=0;points=[[0,0.5],[1,0.5]];portConstraint=eastwest;rounded=0;shadow=0;html=0;labelBackgroundColor=none;fontColor=default;fontFamily=Open Sans;fontSource=https%3A%2F%2Ffonts.googleapis.com%2Fcss%3Ffamily%3DOpen%2BSans;fontSize=12;fontStyle=0;horizontal=1;" parent="kagNfTHLd-AzjVWpu5lo-48" vertex="1">
          <mxGeometry y="175" width="451" height="32" as="geometry" />
        </mxCell>
        <mxCell id="kagNfTHLd-AzjVWpu5lo-54" value="+ enviarReserva (inicio: DateTime, fim: DateTime, justificativa: String) :  void" style="text;align=left;verticalAlign=top;spacingLeft=4;spacingRight=4;overflow=hidden;rotatable=0;points=[[0,0.5],[1,0.5]];portConstraint=eastwest;rounded=0;shadow=0;html=0;labelBackgroundColor=none;fontColor=default;fontFamily=Open Sans;fontSource=https%3A%2F%2Ffonts.googleapis.com%2Fcss%3Ffamily%3DOpen%2BSans;fontSize=12;fontStyle=0;horizontal=1;" parent="kagNfTHLd-AzjVWpu5lo-48" vertex="1">
          <mxGeometry y="207" width="451" height="32" as="geometry" />
        </mxCell>
        <mxCell id="kagNfTHLd-AzjVWpu5lo-60" value="VisaoCadastroReserva" style="swimlane;fontStyle=1;align=center;verticalAlign=top;childLayout=stackLayout;horizontal=1;startSize=26;horizontalStack=0;resizeParent=1;resizeLast=0;collapsible=1;marginBottom=0;rounded=0;shadow=0;strokeWidth=1;labelBackgroundColor=none;fillColor=light-dark(#DAE8FC,#0E1720);strokeColor=#6C8EBF;fontColor=default;perimeterSpacing=0;fontFamily=Open Sans;fontSource=https%3A%2F%2Ffonts.googleapis.com%2Fcss%3Ffamily%3DOpen%2BSans;fontSize=13;fillStyle=auto;swimlaneFillColor=none;glass=0;swimlaneLine=1;gradientColor=none;" parent="WIyWlLk6GJQsqaUBKTNV-1" vertex="1">
          <mxGeometry x="263" y="385" width="310" height="173.5" as="geometry">
            <mxRectangle x="230" y="140" width="160" height="26" as="alternateBounds" />
          </mxGeometry>
        </mxCell>
        <mxCell id="kagNfTHLd-AzjVWpu5lo-65" value="" style="line;html=1;strokeWidth=1;align=center;verticalAlign=top;spacingTop=-1;spacingLeft=3;spacingRight=3;rotatable=1;labelPosition=right;points=[];portConstraint=eastwest;movable=1;resizable=1;deletable=1;editable=1;locked=0;connectable=1;labelBackgroundColor=none;fillColor=light-dark(#DAE8FC,#0E1720);strokeColor=#6C8EBF;fontColor=default;fontFamily=Open Sans;fontSource=https%3A%2F%2Ffonts.googleapis.com%2Fcss%3Ffamily%3DOpen%2BSans;rounded=0;shadow=0;fillStyle=auto;swimlaneFillColor=none;fontSize=13;fontStyle=1;horizontal=1;" parent="kagNfTHLd-AzjVWpu5lo-60" vertex="1">
          <mxGeometry y="26" width="310" height="36" as="geometry" />
        </mxCell>
        <mxCell id="kagNfTHLd-AzjVWpu5lo-67" value="+ exibirTiposEspaco (tipos: TipoEspacoDTO[ ]) :  void" style="text;align=left;verticalAlign=top;spacingLeft=4;spacingRight=4;overflow=hidden;rotatable=0;points=[[0,0.5],[1,0.5]];portConstraint=eastwest;rounded=0;shadow=0;html=0;labelBackgroundColor=none;fontColor=default;fontFamily=Open Sans;fontSource=https%3A%2F%2Ffonts.googleapis.com%2Fcss%3Ffamily%3DOpen%2BSans;fontSize=12;fontStyle=0;horizontal=1;" parent="kagNfTHLd-AzjVWpu5lo-60" vertex="1">
          <mxGeometry y="62" width="310" height="32" as="geometry" />
        </mxCell>
        <mxCell id="6hpvukDDI9iX6RYFW3JA-2" value="+ exibirEspacos (espacos: EspacoDTO[ ]) :  void " style="text;align=left;verticalAlign=top;spacingLeft=4;spacingRight=4;overflow=hidden;rotatable=0;points=[[0,0.5],[1,0.5]];portConstraint=eastwest;rounded=0;shadow=0;html=0;labelBackgroundColor=none;fontColor=default;fontFamily=Open Sans;fontSource=https%3A%2F%2Ffonts.googleapis.com%2Fcss%3Ffamily%3DOpen%2BSans;fontSize=12;fontStyle=0;horizontal=1;" parent="kagNfTHLd-AzjVWpu5lo-60" vertex="1">
          <mxGeometry y="94" width="310" height="32" as="geometry" />
        </mxCell>
        <mxCell id="ydEm1cRBgwzjJEDEYIJd-2" value="- coletarDadosReserva ( ) :  void" style="text;align=left;verticalAlign=top;spacingLeft=4;spacingRight=4;overflow=hidden;rotatable=0;points=[[0,0.5],[1,0.5]];portConstraint=eastwest;rounded=0;shadow=0;html=0;labelBackgroundColor=none;fontColor=default;fontFamily=Open Sans;fontSource=https%3A%2F%2Ffonts.googleapis.com%2Fcss%3Ffamily%3DOpen%2BSans;fontSize=12;fontStyle=0;horizontal=1;" parent="kagNfTHLd-AzjVWpu5lo-60" vertex="1">
          <mxGeometry y="126" width="310" height="32" as="geometry" />
        </mxCell>
        <mxCell id="kagNfTHLd-AzjVWpu5lo-114" value="" style="endArrow=none;html=1;rounded=0;endFill=0;exitX=0.418;exitY=0.001;exitDx=0;exitDy=0;endSize=10;startFill=0;fontFamily=Open Sans;fontSource=https%3A%2F%2Ffonts.googleapis.com%2Fcss%3Ffamily%3DOpen%2BSans;exitPerimeter=0;labelBackgroundColor=none;fontColor=light-dark(#303030,#303030);strokeColor=light-dark(#303030,#303030);" parent="WIyWlLk6GJQsqaUBKTNV-1" edge="1">
          <mxGeometry width="50" height="50" relative="1" as="geometry">
            <mxPoint x="1062.004" y="341.75" as="sourcePoint" />
            <mxPoint x="1062.01" y="251.73" as="targetPoint" />
          </mxGeometry>
        </mxCell>
        <mxCell id="teHVdfIoACIgiHQUZxr0-27" value="1" style="text;align=left;verticalAlign=top;spacingLeft=4;spacingRight=4;overflow=hidden;rotatable=0;points=[[0,0.5],[1,0.5]];portConstraint=eastwest;rounded=0;shadow=0;html=0;labelBackgroundColor=none;fontColor=light-dark(#303030,#303030);fontSize=12;fontFamily=Open Sans;fontSource=https%3A%2F%2Ffonts.googleapis.com%2Fcss%3Ffamily%3DOpen%2BSans;fontStyle=0" parent="WIyWlLk6GJQsqaUBKTNV-1" vertex="1">
          <mxGeometry x="573" y="448" width="18" height="26" as="geometry" />
        </mxCell>
        <mxCell id="teHVdfIoACIgiHQUZxr0-35" value="1" style="text;align=left;verticalAlign=top;spacingLeft=4;spacingRight=4;overflow=hidden;rotatable=0;points=[[0,0.5],[1,0.5]];portConstraint=eastwest;rounded=0;shadow=0;html=0;labelBackgroundColor=none;fontColor=light-dark(#303030,#303030);fontSize=12;fontFamily=Open Sans;fontSource=https%3A%2F%2Ffonts.googleapis.com%2Fcss%3Ffamily%3DOpen%2BSans;fontStyle=0" parent="WIyWlLk6GJQsqaUBKTNV-1" vertex="1">
          <mxGeometry x="803" y="448" width="24" height="26" as="geometry" />
        </mxCell>
        <mxCell id="teHVdfIoACIgiHQUZxr0-36" value="aciona" style="text;align=left;verticalAlign=top;spacingLeft=4;spacingRight=4;overflow=hidden;rotatable=0;points=[[0,0.5],[1,0.5]];portConstraint=eastwest;rounded=0;shadow=0;html=0;labelBackgroundColor=none;fontColor=light-dark(#303030,#303030);fontFamily=Open Sans;fontSource=https%3A%2F%2Ffonts.googleapis.com%2Fcss%3Ffamily%3DOpen%2BSans;" parent="WIyWlLk6GJQsqaUBKTNV-1" vertex="1">
          <mxGeometry x="671" y="449" width="54" height="26" as="geometry" />
        </mxCell>
        <mxCell id="6PMQrMNQSTVx5noMZmWa-13" value="" style="endArrow=open;html=1;rounded=0;endFill=0;jumpSize=9;endSize=10;fontFamily=Open Sans;fontSource=https%3A%2F%2Ffonts.googleapis.com%2Fcss%3Ffamily%3DOpen%2BSans;fontColor=light-dark(#303030,#303030);labelBackgroundColor=none;strokeColor=light-dark(#303030,#303030);entryX=0.003;entryY=0.778;entryDx=0;entryDy=0;entryPerimeter=0;exitX=0.998;exitY=0.881;exitDx=0;exitDy=0;exitPerimeter=0;" parent="WIyWlLk6GJQsqaUBKTNV-1" edge="1" target="6hpvukDDI9iX6RYFW3JA-5" source="kagNfTHLd-AzjVWpu5lo-67">
          <mxGeometry width="50" height="50" relative="1" as="geometry">
            <mxPoint x="576" y="475" as="sourcePoint" />
            <mxPoint x="824" y="474.75" as="targetPoint" />
          </mxGeometry>
        </mxCell>
        <mxCell id="6PMQrMNQSTVx5noMZmWa-15" value="" style="endArrow=none;html=1;rounded=0;endFill=0;endSize=10;startFill=0;fontFamily=Open Sans;fontSource=https%3A%2F%2Ffonts.googleapis.com%2Fcss%3Ffamily%3DOpen%2BSans;labelBackgroundColor=none;fontColor=light-dark(#303030,#303030);strokeColor=light-dark(#303030,#303030);" parent="WIyWlLk6GJQsqaUBKTNV-1" edge="1">
          <mxGeometry width="50" height="50" relative="1" as="geometry">
            <mxPoint x="666" y="252" as="sourcePoint" />
            <mxPoint x="1062" y="251" as="targetPoint" />
          </mxGeometry>
        </mxCell>
        <mxCell id="6PMQrMNQSTVx5noMZmWa-16" value="" style="endArrow=open;html=1;rounded=0;endFill=0;endSize=10;startFill=0;fontFamily=Open Sans;fontSource=https%3A%2F%2Ffonts.googleapis.com%2Fcss%3Ffamily%3DOpen%2BSans;labelBackgroundColor=none;fontColor=light-dark(#303030,#303030);strokeColor=light-dark(#303030,#303030);" parent="WIyWlLk6GJQsqaUBKTNV-1" edge="1">
          <mxGeometry width="50" height="50" relative="1" as="geometry">
            <mxPoint x="666" y="252" as="sourcePoint" />
            <mxPoint x="666" y="144" as="targetPoint" />
          </mxGeometry>
        </mxCell>
        <mxCell id="6PMQrMNQSTVx5noMZmWa-17" value="encaminha" style="text;align=left;verticalAlign=top;spacingLeft=4;spacingRight=4;overflow=hidden;rotatable=0;points=[[0,0.5],[1,0.5]];portConstraint=eastwest;rounded=0;shadow=0;html=0;labelBackgroundColor=none;fontColor=light-dark(#303030,#303030);fontFamily=Open Sans;fontSource=https%3A%2F%2Ffonts.googleapis.com%2Fcss%3Ffamily%3DOpen%2BSans;" parent="WIyWlLk6GJQsqaUBKTNV-1" vertex="1">
          <mxGeometry x="827" y="226" width="79" height="26" as="geometry" />
        </mxCell>
        <mxCell id="6PMQrMNQSTVx5noMZmWa-18" value="1" style="text;align=left;verticalAlign=top;spacingLeft=4;spacingRight=4;overflow=hidden;rotatable=0;points=[[0,0.5],[1,0.5]];portConstraint=eastwest;rounded=0;shadow=0;html=0;labelBackgroundColor=none;fontColor=light-dark(#303030,#303030);fontSize=12;fontFamily=Open Sans;fontSource=https%3A%2F%2Ffonts.googleapis.com%2Fcss%3Ffamily%3DOpen%2BSans;fontStyle=0" parent="WIyWlLk6GJQsqaUBKTNV-1" vertex="1">
          <mxGeometry x="675" y="146" width="24" height="26" as="geometry" />
        </mxCell>
        <mxCell id="6PMQrMNQSTVx5noMZmWa-19" value="1" style="text;align=left;verticalAlign=top;spacingLeft=4;spacingRight=4;overflow=hidden;rotatable=0;points=[[0,0.5],[1,0.5]];portConstraint=eastwest;rounded=0;shadow=0;html=0;labelBackgroundColor=none;fontColor=light-dark(#303030,#303030);fontSize=13;fontFamily=Open Sans;fontSource=https%3A%2F%2Ffonts.googleapis.com%2Fcss%3Ffamily%3DOpen%2BSans;strokeColor=none;" parent="WIyWlLk6GJQsqaUBKTNV-1" vertex="1">
          <mxGeometry x="1066.82" y="312.73" width="24" height="26" as="geometry" />
        </mxCell>
        <mxCell id="6PMQrMNQSTVx5noMZmWa-20" value="ServicoCadastroReserva" style="swimlane;fontStyle=1;align=center;verticalAlign=top;childLayout=stackLayout;horizontal=1;startSize=26;horizontalStack=0;resizeParent=1;resizeLast=0;collapsible=1;marginBottom=0;rounded=0;shadow=0;strokeWidth=1;labelBackgroundColor=none;fillColor=light-dark(#DAE8FC,#0E1720);strokeColor=#6C8EBF;fontColor=default;perimeterSpacing=0;fontFamily=Open Sans;fontSource=https%3A%2F%2Ffonts.googleapis.com%2Fcss%3Ffamily%3DOpen%2BSans;fontSize=13;fillStyle=auto;swimlaneFillColor=none;" parent="WIyWlLk6GJQsqaUBKTNV-1" vertex="1">
          <mxGeometry x="783" y="-653" width="518" height="432" as="geometry">
            <mxRectangle x="230" y="140" width="160" height="26" as="alternateBounds" />
          </mxGeometry>
        </mxCell>
        <mxCell id="6PMQrMNQSTVx5noMZmWa-23" value="&#xa;- transacao :  Transacao" style="text;align=left;verticalAlign=top;spacingLeft=4;spacingRight=4;overflow=hidden;rotatable=0;points=[[0,0.5],[1,0.5]];portConstraint=eastwest;rounded=0;shadow=0;html=0;labelBackgroundColor=none;fontColor=default;fontFamily=Open Sans;fontSource=https%3A%2F%2Ffonts.googleapis.com%2Fcss%3Ffamily%3DOpen%2BSans;fontSize=12;fontStyle=0;horizontal=1;" parent="6PMQrMNQSTVx5noMZmWa-20" vertex="1">
          <mxGeometry y="26" width="518" height="43" as="geometry" />
        </mxCell>
        <mxCell id="6PMQrMNQSTVx5noMZmWa-24" value="" style="line;html=1;strokeWidth=1;align=center;verticalAlign=top;spacingTop=-1;spacingLeft=3;spacingRight=3;rotatable=1;labelPosition=right;points=[];portConstraint=eastwest;movable=1;resizable=1;deletable=1;editable=1;locked=0;connectable=1;labelBackgroundColor=none;fillColor=light-dark(#DAE8FC,#0E1720);strokeColor=#6C8EBF;fontColor=default;fontFamily=Open Sans;fontSource=https%3A%2F%2Ffonts.googleapis.com%2Fcss%3Ffamily%3DOpen%2BSans;rounded=0;shadow=0;fillStyle=auto;swimlaneFillColor=none;fontSize=12;fontStyle=0;horizontal=1;" parent="6PMQrMNQSTVx5noMZmWa-20" vertex="1">
          <mxGeometry y="69" width="518" height="30" as="geometry" />
        </mxCell>
        <mxCell id="6PMQrMNQSTVx5noMZmWa-25" value="+ buscarTiposEspaco (&#xa;           tipoUsuario: String, tipoFunc: String, cargoGestao: Boolean&#xa;) :  TipoEspacoDTO[ ]" style="text;align=left;verticalAlign=top;spacingLeft=4;spacingRight=4;overflow=hidden;rotatable=0;points=[[0,0.5],[1,0.5]];portConstraint=eastwest;rounded=0;shadow=0;html=0;labelBackgroundColor=none;fontColor=default;fontFamily=Open Sans;fontSource=https%3A%2F%2Ffonts.googleapis.com%2Fcss%3Ffamily%3DOpen%2BSans;fontSize=12;fontStyle=0;horizontal=1;" parent="6PMQrMNQSTVx5noMZmWa-20" vertex="1">
          <mxGeometry y="99" width="518" height="61" as="geometry" />
        </mxCell>
        <mxCell id="t1vl1GP2TdC1CwPDV5j0-111" value="+ buscarEspacosPorTipo (&#xa;           idTipoEspaco: Int&#xa;) :  EspacoDTO[ ]&#xa;&#xa;" style="text;align=left;verticalAlign=top;spacingLeft=4;spacingRight=4;overflow=hidden;rotatable=0;points=[[0,0.5],[1,0.5]];portConstraint=eastwest;rounded=0;shadow=0;html=0;labelBackgroundColor=none;fontColor=default;fontFamily=Open Sans;fontSource=https%3A%2F%2Ffonts.googleapis.com%2Fcss%3Ffamily%3DOpen%2BSans;fontSize=12;fontStyle=0;horizontal=1;" vertex="1" parent="6PMQrMNQSTVx5noMZmWa-20">
          <mxGeometry y="160" width="518" height="61" as="geometry" />
        </mxCell>
        <mxCell id="t1vl1GP2TdC1CwPDV5j0-112" value="- verificarPermissaoEspaco (&#xa;           nomeTipoEspaco: String, tipoUsuario: String, tipoFunc: String, cargoGestao: Boolean&#xa;) :  void&#xa;&#xa;" style="text;align=left;verticalAlign=top;spacingLeft=4;spacingRight=4;overflow=hidden;rotatable=0;points=[[0,0.5],[1,0.5]];portConstraint=eastwest;rounded=0;shadow=0;html=0;labelBackgroundColor=none;fontColor=default;fontFamily=Open Sans;fontSource=https%3A%2F%2Ffonts.googleapis.com%2Fcss%3Ffamily%3DOpen%2BSans;fontSize=12;fontStyle=0;horizontal=1;" vertex="1" parent="6PMQrMNQSTVx5noMZmWa-20">
          <mxGeometry y="221" width="518" height="61" as="geometry" />
        </mxCell>
        <mxCell id="t1vl1GP2TdC1CwPDV5j0-113" value="- verificarPermissaoHoras (&#xa;           horas: Int, tipoUsuario: String, tipoFunc: String, cargoGestao: Boolean&#xa;) :  void&#xa;&#xa;" style="text;align=left;verticalAlign=top;spacingLeft=4;spacingRight=4;overflow=hidden;rotatable=0;points=[[0,0.5],[1,0.5]];portConstraint=eastwest;rounded=0;shadow=0;html=0;labelBackgroundColor=none;fontColor=default;fontFamily=Open Sans;fontSource=https%3A%2F%2Ffonts.googleapis.com%2Fcss%3Ffamily%3DOpen%2BSans;fontSize=12;fontStyle=0;horizontal=1;" vertex="1" parent="6PMQrMNQSTVx5noMZmWa-20">
          <mxGeometry y="282" width="518" height="61" as="geometry" />
        </mxCell>
        <mxCell id="t1vl1GP2TdC1CwPDV5j0-115" value="- cadastrarReserva (&#xa;           idEspaco: Int, inicio: DateTime, fim: DateTime, justificativa: String,&#xa;           idUsuario: Int, tipoUsuario: String, tipoFunc: String, cargoGestao: Boolean&#xa;) :  void&#xa;&#xa;" style="text;align=left;verticalAlign=top;spacingLeft=4;spacingRight=4;overflow=hidden;rotatable=0;points=[[0,0.5],[1,0.5]];portConstraint=eastwest;rounded=0;shadow=0;html=0;labelBackgroundColor=none;fontColor=default;fontFamily=Open Sans;fontSource=https%3A%2F%2Ffonts.googleapis.com%2Fcss%3Ffamily%3DOpen%2BSans;fontSize=12;fontStyle=0;horizontal=1;" vertex="1" parent="6PMQrMNQSTVx5noMZmWa-20">
          <mxGeometry y="343" width="518" height="69" as="geometry" />
        </mxCell>
        <mxCell id="6PMQrMNQSTVx5noMZmWa-33" value="" style="endArrow=open;html=1;rounded=0;endFill=0;jumpSize=9;endSize=12;dashed=1;strokeWidth=1.5;startSize=3;targetPerimeterSpacing=0;sourcePerimeterSpacing=3;fontFamily=Open Sans;fontSource=https%3A%2F%2Ffonts.googleapis.com%2Fcss%3Ffamily%3DOpen%2BSans;labelBackgroundColor=none;fontColor=light-dark(#303030,#303030);strokeColor=light-dark(#303030,#303030);entryX=-0.004;entryY=0.405;entryDx=0;entryDy=0;entryPerimeter=0;" parent="WIyWlLk6GJQsqaUBKTNV-1" edge="1">
          <mxGeometry width="50" height="50" relative="1" as="geometry">
            <mxPoint x="667" y="-413" as="sourcePoint" />
            <mxPoint x="784.4280000000003" y="-412.83500000000004" as="targetPoint" />
          </mxGeometry>
        </mxCell>
        <mxCell id="6PMQrMNQSTVx5noMZmWa-34" value="requisita" style="text;align=left;verticalAlign=top;spacingLeft=4;spacingRight=4;overflow=hidden;rotatable=0;points=[[0,0.5],[1,0.5]];portConstraint=eastwest;rounded=0;shadow=0;html=0;labelBackgroundColor=none;fontColor=light-dark(#303030,#303030);fontFamily=Open Sans;fontSource=https%3A%2F%2Ffonts.googleapis.com%2Fcss%3Ffamily%3DOpen%2BSans;" parent="WIyWlLk6GJQsqaUBKTNV-1" vertex="1">
          <mxGeometry x="670" y="-221" width="62" height="26" as="geometry" />
        </mxCell>
        <mxCell id="6PMQrMNQSTVx5noMZmWa-35" value="0..*" style="text;align=left;verticalAlign=top;spacingLeft=4;spacingRight=4;overflow=hidden;rotatable=0;points=[[0,0.5],[1,0.5]];portConstraint=eastwest;rounded=0;shadow=0;html=0;labelBackgroundColor=none;fontColor=light-dark(#303030,#303030);strokeWidth=1;perimeterSpacing=0;spacing=2;fontSize=13;fontFamily=Open Sans;fontSource=https%3A%2F%2Ffonts.googleapis.com%2Fcss%3Ffamily%3DOpen%2BSans;" parent="WIyWlLk6GJQsqaUBKTNV-1" vertex="1">
          <mxGeometry x="670" y="-11" width="35" height="26" as="geometry" />
        </mxCell>
        <mxCell id="6PMQrMNQSTVx5noMZmWa-36" value="1" style="text;align=left;verticalAlign=top;spacingLeft=4;spacingRight=4;overflow=hidden;rotatable=0;points=[[0,0.5],[1,0.5]];portConstraint=eastwest;rounded=0;shadow=0;html=0;labelBackgroundColor=none;fontColor=light-dark(#303030,#303030);fontSize=12;fontFamily=Open Sans;fontSource=https%3A%2F%2Ffonts.googleapis.com%2Fcss%3Ffamily%3DOpen%2BSans;fontStyle=0" parent="WIyWlLk6GJQsqaUBKTNV-1" vertex="1">
          <mxGeometry x="756" y="-406" width="24" height="26" as="geometry" />
        </mxCell>
        <mxCell id="t1vl1GP2TdC1CwPDV5j0-123" value="RepositorioEspaco" style="swimlane;fontStyle=1;align=center;verticalAlign=top;childLayout=stackLayout;horizontal=1;startSize=26;horizontalStack=0;resizeParent=1;resizeLast=0;collapsible=1;marginBottom=0;rounded=0;shadow=0;strokeWidth=1;labelBackgroundColor=none;fillColor=light-dark(#DAE8FC,#0E1720);strokeColor=#6C8EBF;fontColor=default;perimeterSpacing=0;fontFamily=Open Sans;fontSource=https%3A%2F%2Ffonts.googleapis.com%2Fcss%3Ffamily%3DOpen%2BSans;fontSize=13;fillStyle=auto;swimlaneFillColor=none;" vertex="1" parent="WIyWlLk6GJQsqaUBKTNV-1">
          <mxGeometry x="288" y="-846" width="230" height="134" as="geometry">
            <mxRectangle x="230" y="140" width="160" height="26" as="alternateBounds" />
          </mxGeometry>
        </mxCell>
        <mxCell id="t1vl1GP2TdC1CwPDV5j0-124" value="" style="line;html=1;strokeWidth=1;align=center;verticalAlign=top;spacingTop=-1;spacingLeft=3;spacingRight=3;rotatable=1;labelPosition=right;points=[];portConstraint=eastwest;movable=1;resizable=1;deletable=1;editable=1;locked=0;connectable=1;labelBackgroundColor=none;fillColor=light-dark(#DAE8FC,#0E1720);strokeColor=#6C8EBF;fontColor=default;fontFamily=Open Sans;fontSource=https%3A%2F%2Ffonts.googleapis.com%2Fcss%3Ffamily%3DOpen%2BSans;rounded=0;shadow=0;fillStyle=auto;swimlaneFillColor=none;fontSize=13;fontStyle=1;horizontal=1;" vertex="1" parent="t1vl1GP2TdC1CwPDV5j0-123">
          <mxGeometry y="26" width="230" height="36" as="geometry" />
        </mxCell>
        <mxCell id="t1vl1GP2TdC1CwPDV5j0-125" value="+ buscarPorId (id: Int) :  Espaco" style="text;align=left;verticalAlign=top;spacingLeft=4;spacingRight=4;overflow=hidden;rotatable=0;points=[[0,0.5],[1,0.5]];portConstraint=eastwest;rounded=0;shadow=0;html=0;labelBackgroundColor=none;fontColor=default;fontFamily=Open Sans;fontSource=https%3A%2F%2Ffonts.googleapis.com%2Fcss%3Ffamily%3DOpen%2BSans;fontSize=12;fontStyle=0;horizontal=1;" vertex="1" parent="t1vl1GP2TdC1CwPDV5j0-123">
          <mxGeometry y="62" width="230" height="28" as="geometry" />
        </mxCell>
        <mxCell id="t1vl1GP2TdC1CwPDV5j0-135" value="+ buscarPorTipo (id: Int) :  Espaco" style="text;align=left;verticalAlign=top;spacingLeft=4;spacingRight=4;overflow=hidden;rotatable=0;points=[[0,0.5],[1,0.5]];portConstraint=eastwest;rounded=0;shadow=0;html=0;labelBackgroundColor=none;fontColor=default;fontFamily=Open Sans;fontSource=https%3A%2F%2Ffonts.googleapis.com%2Fcss%3Ffamily%3DOpen%2BSans;fontSize=12;fontStyle=0;horizontal=1;" vertex="1" parent="t1vl1GP2TdC1CwPDV5j0-123">
          <mxGeometry y="90" width="230" height="28" as="geometry" />
        </mxCell>
        <mxCell id="t1vl1GP2TdC1CwPDV5j0-126" value="RepositorioReserva" style="swimlane;fontStyle=1;align=center;verticalAlign=top;childLayout=stackLayout;horizontal=1;startSize=26;horizontalStack=0;resizeParent=1;resizeLast=0;collapsible=1;marginBottom=0;rounded=0;shadow=0;strokeWidth=1;labelBackgroundColor=none;fillColor=light-dark(#DAE8FC,#0E1720);strokeColor=#6C8EBF;fontColor=default;perimeterSpacing=0;fontFamily=Open Sans;fontSource=https%3A%2F%2Ffonts.googleapis.com%2Fcss%3Ffamily%3DOpen%2BSans;fontSize=13;fillStyle=auto;swimlaneFillColor=none;" vertex="1" parent="WIyWlLk6GJQsqaUBKTNV-1">
          <mxGeometry x="288" y="-1088.5" width="347" height="151" as="geometry">
            <mxRectangle x="230" y="140" width="160" height="26" as="alternateBounds" />
          </mxGeometry>
        </mxCell>
        <mxCell id="t1vl1GP2TdC1CwPDV5j0-127" value="" style="line;html=1;strokeWidth=1;align=center;verticalAlign=top;spacingTop=-1;spacingLeft=3;spacingRight=3;rotatable=1;labelPosition=right;points=[];portConstraint=eastwest;movable=1;resizable=1;deletable=1;editable=1;locked=0;connectable=1;labelBackgroundColor=none;fillColor=light-dark(#DAE8FC,#0E1720);strokeColor=#6C8EBF;fontColor=default;fontFamily=Open Sans;fontSource=https%3A%2F%2Ffonts.googleapis.com%2Fcss%3Ffamily%3DOpen%2BSans;rounded=0;shadow=0;fillStyle=auto;swimlaneFillColor=none;fontSize=13;fontStyle=1;horizontal=1;" vertex="1" parent="t1vl1GP2TdC1CwPDV5j0-126">
          <mxGeometry y="26" width="347" height="36" as="geometry" />
        </mxCell>
        <mxCell id="t1vl1GP2TdC1CwPDV5j0-128" value="- salvar (&#xa;            idUsuario: Int, idEspaco: Int, data: DateTime, &#xa;            inicio: DateTime, fim: DateTime, justificativa: String,&#xa;            estado: String&#xa;) :  void&#xa;&#xa;" style="text;align=left;verticalAlign=top;spacingLeft=4;spacingRight=4;overflow=hidden;rotatable=0;points=[[0,0.5],[1,0.5]];portConstraint=eastwest;rounded=0;shadow=0;html=0;labelBackgroundColor=none;fontColor=default;fontFamily=Open Sans;fontSource=https%3A%2F%2Ffonts.googleapis.com%2Fcss%3Ffamily%3DOpen%2BSans;fontSize=12;fontStyle=0;horizontal=1;" vertex="1" parent="t1vl1GP2TdC1CwPDV5j0-126">
          <mxGeometry y="62" width="347" height="82" as="geometry" />
        </mxCell>
        <mxCell id="t1vl1GP2TdC1CwPDV5j0-129" value="Reserva" style="swimlane;fontStyle=1;align=center;verticalAlign=top;childLayout=stackLayout;horizontal=1;startSize=26;horizontalStack=0;resizeParent=1;resizeLast=0;collapsible=1;marginBottom=0;rounded=0;shadow=0;strokeWidth=1;labelBackgroundColor=none;fontSize=13;fontFamily=Open Sans;fontSource=https%3A%2F%2Ffonts.googleapis.com%2Fcss%3Ffamily%3DOpen%2BSans;fillStyle=auto;fillColor=light-dark(#DAE8FC,#0E1720);strokeColor=#6c8ebf;swimlaneFillColor=none;" vertex="1" parent="WIyWlLk6GJQsqaUBKTNV-1">
          <mxGeometry x="1066.82" y="-1087.5" width="228" height="207" as="geometry">
            <mxRectangle x="550" y="140" width="160" height="26" as="alternateBounds" />
          </mxGeometry>
        </mxCell>
        <mxCell id="t1vl1GP2TdC1CwPDV5j0-130" value="&#xa;- id :  Int" style="text;align=left;verticalAlign=top;spacingLeft=4;spacingRight=4;overflow=hidden;rotatable=0;points=[[0,0.5],[1,0.5]];portConstraint=eastwest;labelBackgroundColor=none;fontColor=light-dark(#000000, #b6b8cf);fontFamily=Open Sans;fontSource=https%3A%2F%2Ffonts.googleapis.com%2Fcss%3Ffamily%3DOpen%2BSans;" vertex="1" parent="t1vl1GP2TdC1CwPDV5j0-129">
          <mxGeometry y="26" width="228" height="39" as="geometry" />
        </mxCell>
        <mxCell id="t1vl1GP2TdC1CwPDV5j0-182" value="- data :  DateTime" style="text;align=left;verticalAlign=top;spacingLeft=4;spacingRight=4;overflow=hidden;rotatable=0;points=[[0,0.5],[1,0.5]];portConstraint=eastwest;rounded=0;shadow=0;html=0;labelBackgroundColor=none;fontColor=light-dark(#000000, #b6b8cf);fontFamily=Open Sans;fontSource=https%3A%2F%2Ffonts.googleapis.com%2Fcss%3Ffamily%3DOpen%2BSans;" vertex="1" parent="t1vl1GP2TdC1CwPDV5j0-129">
          <mxGeometry y="65" width="228" height="26" as="geometry" />
        </mxCell>
        <mxCell id="t1vl1GP2TdC1CwPDV5j0-131" value="- inicio :  DateTime" style="text;align=left;verticalAlign=top;spacingLeft=4;spacingRight=4;overflow=hidden;rotatable=0;points=[[0,0.5],[1,0.5]];portConstraint=eastwest;rounded=0;shadow=0;html=0;labelBackgroundColor=none;fontColor=light-dark(#000000, #b6b8cf);fontFamily=Open Sans;fontSource=https%3A%2F%2Ffonts.googleapis.com%2Fcss%3Ffamily%3DOpen%2BSans;" vertex="1" parent="t1vl1GP2TdC1CwPDV5j0-129">
          <mxGeometry y="91" width="228" height="26" as="geometry" />
        </mxCell>
        <mxCell id="t1vl1GP2TdC1CwPDV5j0-132" value="- fim :  DateTime" style="text;align=left;verticalAlign=top;spacingLeft=4;spacingRight=4;overflow=hidden;rotatable=0;points=[[0,0.5],[1,0.5]];portConstraint=eastwest;rounded=0;shadow=0;html=0;labelBackgroundColor=none;fontColor=light-dark(#000000, #b6b8cf);fontFamily=Open Sans;fontSource=https%3A%2F%2Ffonts.googleapis.com%2Fcss%3Ffamily%3DOpen%2BSans;" vertex="1" parent="t1vl1GP2TdC1CwPDV5j0-129">
          <mxGeometry y="117" width="228" height="26" as="geometry" />
        </mxCell>
        <mxCell id="t1vl1GP2TdC1CwPDV5j0-133" value="- justificativa :  String" style="text;align=left;verticalAlign=top;spacingLeft=4;spacingRight=4;overflow=hidden;rotatable=0;points=[[0,0.5],[1,0.5]];portConstraint=eastwest;rounded=0;shadow=0;html=0;labelBackgroundColor=none;fontColor=light-dark(#000000, #b6b8cf);fontFamily=Open Sans;fontSource=https%3A%2F%2Ffonts.googleapis.com%2Fcss%3Ffamily%3DOpen%2BSans;" vertex="1" parent="t1vl1GP2TdC1CwPDV5j0-129">
          <mxGeometry y="143" width="228" height="26" as="geometry" />
        </mxCell>
        <mxCell id="t1vl1GP2TdC1CwPDV5j0-134" value="" style="line;html=1;strokeWidth=1;align=left;verticalAlign=middle;spacingTop=-1;spacingLeft=3;spacingRight=3;rotatable=0;labelPosition=right;points=[];portConstraint=eastwest;labelBackgroundColor=none;fillColor=#dae8fc;strokeColor=#6c8ebf;fontFamily=Open Sans;fontSource=https%3A%2F%2Ffonts.googleapis.com%2Fcss%3Ffamily%3DOpen%2BSans;" vertex="1" parent="t1vl1GP2TdC1CwPDV5j0-129">
          <mxGeometry y="169" width="228" height="38" as="geometry" />
        </mxCell>
        <mxCell id="t1vl1GP2TdC1CwPDV5j0-136" value="RepositorioTipoEspaco" style="swimlane;fontStyle=1;align=center;verticalAlign=top;childLayout=stackLayout;horizontal=1;startSize=26;horizontalStack=0;resizeParent=1;resizeLast=0;collapsible=1;marginBottom=0;rounded=0;shadow=0;strokeWidth=1;labelBackgroundColor=none;fillColor=light-dark(#DAE8FC,#0E1720);strokeColor=#6C8EBF;fontColor=default;perimeterSpacing=0;fontFamily=Open Sans;fontSource=https%3A%2F%2Ffonts.googleapis.com%2Fcss%3Ffamily%3DOpen%2BSans;fontSize=13;fillStyle=auto;swimlaneFillColor=none;" vertex="1" parent="WIyWlLk6GJQsqaUBKTNV-1">
          <mxGeometry x="288" y="-630" width="230" height="134" as="geometry">
            <mxRectangle x="230" y="140" width="160" height="26" as="alternateBounds" />
          </mxGeometry>
        </mxCell>
        <mxCell id="t1vl1GP2TdC1CwPDV5j0-137" value="" style="line;html=1;strokeWidth=1;align=center;verticalAlign=top;spacingTop=-1;spacingLeft=3;spacingRight=3;rotatable=1;labelPosition=right;points=[];portConstraint=eastwest;movable=1;resizable=1;deletable=1;editable=1;locked=0;connectable=1;labelBackgroundColor=none;fillColor=light-dark(#DAE8FC,#0E1720);strokeColor=#6C8EBF;fontColor=default;fontFamily=Open Sans;fontSource=https%3A%2F%2Ffonts.googleapis.com%2Fcss%3Ffamily%3DOpen%2BSans;rounded=0;shadow=0;fillStyle=auto;swimlaneFillColor=none;fontSize=13;fontStyle=1;horizontal=1;" vertex="1" parent="t1vl1GP2TdC1CwPDV5j0-136">
          <mxGeometry y="26" width="230" height="36" as="geometry" />
        </mxCell>
        <mxCell id="t1vl1GP2TdC1CwPDV5j0-138" value="+ buscarPorId (id: Int) :  TipoEspaco" style="text;align=left;verticalAlign=top;spacingLeft=4;spacingRight=4;overflow=hidden;rotatable=0;points=[[0,0.5],[1,0.5]];portConstraint=eastwest;rounded=0;shadow=0;html=0;labelBackgroundColor=none;fontColor=default;fontFamily=Open Sans;fontSource=https%3A%2F%2Ffonts.googleapis.com%2Fcss%3Ffamily%3DOpen%2BSans;fontSize=12;fontStyle=0;horizontal=1;" vertex="1" parent="t1vl1GP2TdC1CwPDV5j0-136">
          <mxGeometry y="62" width="230" height="28" as="geometry" />
        </mxCell>
        <mxCell id="t1vl1GP2TdC1CwPDV5j0-139" value="+ buscarTodos ( ) :  TipoEspaco[ ]" style="text;align=left;verticalAlign=top;spacingLeft=4;spacingRight=4;overflow=hidden;rotatable=0;points=[[0,0.5],[1,0.5]];portConstraint=eastwest;rounded=0;shadow=0;html=0;labelBackgroundColor=none;fontColor=default;fontFamily=Open Sans;fontSource=https%3A%2F%2Ffonts.googleapis.com%2Fcss%3Ffamily%3DOpen%2BSans;fontSize=12;fontStyle=0;horizontal=1;" vertex="1" parent="t1vl1GP2TdC1CwPDV5j0-136">
          <mxGeometry y="90" width="230" height="28" as="geometry" />
        </mxCell>
        <mxCell id="t1vl1GP2TdC1CwPDV5j0-140" value="RepositorioUsuario" style="swimlane;fontStyle=1;align=center;verticalAlign=top;childLayout=stackLayout;horizontal=1;startSize=26;horizontalStack=0;resizeParent=1;resizeLast=0;collapsible=1;marginBottom=0;rounded=0;shadow=0;strokeWidth=1;labelBackgroundColor=none;fillColor=light-dark(#DAE8FC,#0E1720);strokeColor=#6C8EBF;fontColor=default;perimeterSpacing=0;fontFamily=Open Sans;fontSource=https%3A%2F%2Ffonts.googleapis.com%2Fcss%3Ffamily%3DOpen%2BSans;fontSize=13;fillStyle=auto;swimlaneFillColor=none;" vertex="1" parent="WIyWlLk6GJQsqaUBKTNV-1">
          <mxGeometry x="288" y="-421" width="230" height="134" as="geometry">
            <mxRectangle x="230" y="140" width="160" height="26" as="alternateBounds" />
          </mxGeometry>
        </mxCell>
        <mxCell id="t1vl1GP2TdC1CwPDV5j0-141" value="" style="line;html=1;strokeWidth=1;align=center;verticalAlign=top;spacingTop=-1;spacingLeft=3;spacingRight=3;rotatable=1;labelPosition=right;points=[];portConstraint=eastwest;movable=1;resizable=1;deletable=1;editable=1;locked=0;connectable=1;labelBackgroundColor=none;fillColor=light-dark(#DAE8FC,#0E1720);strokeColor=#6C8EBF;fontColor=default;fontFamily=Open Sans;fontSource=https%3A%2F%2Ffonts.googleapis.com%2Fcss%3Ffamily%3DOpen%2BSans;rounded=0;shadow=0;fillStyle=auto;swimlaneFillColor=none;fontSize=13;fontStyle=1;horizontal=1;" vertex="1" parent="t1vl1GP2TdC1CwPDV5j0-140">
          <mxGeometry y="26" width="230" height="36" as="geometry" />
        </mxCell>
        <mxCell id="t1vl1GP2TdC1CwPDV5j0-142" value="+ buscarPorId (id: Int) :  Usuario" style="text;align=left;verticalAlign=top;spacingLeft=4;spacingRight=4;overflow=hidden;rotatable=0;points=[[0,0.5],[1,0.5]];portConstraint=eastwest;rounded=0;shadow=0;html=0;labelBackgroundColor=none;fontColor=default;fontFamily=Open Sans;fontSource=https%3A%2F%2Ffonts.googleapis.com%2Fcss%3Ffamily%3DOpen%2BSans;fontSize=12;fontStyle=0;horizontal=1;" vertex="1" parent="t1vl1GP2TdC1CwPDV5j0-140">
          <mxGeometry y="62" width="230" height="28" as="geometry" />
        </mxCell>
        <mxCell id="t1vl1GP2TdC1CwPDV5j0-146" value="FRONT-END" style="text;align=left;verticalAlign=top;spacingLeft=4;spacingRight=4;overflow=hidden;rotatable=0;points=[[0,0.5],[1,0.5]];portConstraint=eastwest;rounded=0;shadow=0;html=0;labelBackgroundColor=none;fontColor=default;fontFamily=Open Sans;fontSource=https%3A%2F%2Ffonts.googleapis.com%2Fcss%3Ffamily%3DOpen%2BSans;fontSize=25;fontStyle=1;horizontal=1;" vertex="1" parent="WIyWlLk6GJQsqaUBKTNV-1">
          <mxGeometry x="1178" y="-18" width="150" height="42" as="geometry" />
        </mxCell>
        <mxCell id="t1vl1GP2TdC1CwPDV5j0-147" value="" style="endArrow=none;html=1;rounded=0;endFill=0;exitX=0.418;exitY=0.001;exitDx=0;exitDy=0;endSize=12;startFill=0;fontFamily=Open Sans;fontSource=https%3A%2F%2Ffonts.googleapis.com%2Fcss%3Ffamily%3DOpen%2BSans;exitPerimeter=0;labelBackgroundColor=none;fontColor=light-dark(#303030,#303030);strokeColor=light-dark(#303030,#303030);dashed=1;strokeWidth=1.5;align=center;verticalAlign=middle;fontSize=11;jumpSize=9;startSize=3;sourcePerimeterSpacing=3;targetPerimeterSpacing=0;" edge="1" parent="WIyWlLk6GJQsqaUBKTNV-1">
          <mxGeometry width="50" height="50" relative="1" as="geometry">
            <mxPoint x="667" y="18.019999999999996" as="sourcePoint" />
            <mxPoint x="668" y="-413" as="targetPoint" />
          </mxGeometry>
        </mxCell>
        <mxCell id="t1vl1GP2TdC1CwPDV5j0-148" value="" style="endArrow=open;html=1;rounded=0;endFill=0;jumpSize=9;endSize=12;dashed=1;strokeWidth=1.5;startSize=3;targetPerimeterSpacing=3;sourcePerimeterSpacing=0;startFill=0;fontFamily=Open Sans;fontSource=https%3A%2F%2Ffonts.googleapis.com%2Fcss%3Ffamily%3DOpen%2BSans;labelBackgroundColor=none;fontColor=light-dark(#303030,#303030);strokeColor=light-dark(#303030,#303030);" edge="1" parent="WIyWlLk6GJQsqaUBKTNV-1">
          <mxGeometry width="50" height="50" relative="1" as="geometry">
            <mxPoint x="1177" y="-653" as="sourcePoint" />
            <mxPoint x="1177" y="-880" as="targetPoint" />
          </mxGeometry>
        </mxCell>
        <mxCell id="t1vl1GP2TdC1CwPDV5j0-150" value="0..*" style="text;align=left;verticalAlign=top;spacingLeft=4;spacingRight=4;overflow=hidden;rotatable=0;points=[[0,0.5],[1,0.5]];portConstraint=eastwest;rounded=0;shadow=0;html=0;labelBackgroundColor=none;fontColor=light-dark(#303030,#303030);strokeWidth=1;perimeterSpacing=0;spacing=2;fontSize=12;fontFamily=Open Sans;fontSource=https%3A%2F%2Ffonts.googleapis.com%2Fcss%3Ffamily%3DOpen%2BSans;fontStyle=0;strokeColor=none;" vertex="1" parent="WIyWlLk6GJQsqaUBKTNV-1">
          <mxGeometry x="1187.82" y="-877" width="35" height="26" as="geometry" />
        </mxCell>
        <mxCell id="t1vl1GP2TdC1CwPDV5j0-151" value="1" style="text;align=left;verticalAlign=top;spacingLeft=4;spacingRight=4;overflow=hidden;rotatable=0;points=[[0,0.5],[1,0.5]];portConstraint=eastwest;rounded=0;shadow=0;html=0;labelBackgroundColor=none;fontColor=light-dark(#303030,#303030);fontSize=13;fontFamily=Open Sans;fontSource=https%3A%2F%2Ffonts.googleapis.com%2Fcss%3Ffamily%3DOpen%2BSans;" vertex="1" parent="WIyWlLk6GJQsqaUBKTNV-1">
          <mxGeometry x="1181.82" y="-683" width="24" height="26" as="geometry" />
        </mxCell>
        <mxCell id="t1vl1GP2TdC1CwPDV5j0-154" value="" style="endArrow=none;html=1;rounded=0;endFill=0;endSize=10;startFill=0;fontFamily=Open Sans;fontSource=https%3A%2F%2Ffonts.googleapis.com%2Fcss%3Ffamily%3DOpen%2BSans;labelBackgroundColor=none;fontColor=light-dark(#303030,#303030);strokeColor=light-dark(#303030,#303030);" edge="1" parent="WIyWlLk6GJQsqaUBKTNV-1">
          <mxGeometry width="50" height="50" relative="1" as="geometry">
            <mxPoint x="783" y="-509" as="sourcePoint" />
            <mxPoint x="612" y="-509" as="targetPoint" />
          </mxGeometry>
        </mxCell>
        <mxCell id="t1vl1GP2TdC1CwPDV5j0-155" value="1" style="text;align=left;verticalAlign=top;spacingLeft=4;spacingRight=4;overflow=hidden;rotatable=0;points=[[0,0.5],[1,0.5]];portConstraint=eastwest;rounded=0;shadow=0;html=0;labelBackgroundColor=none;fontColor=light-dark(#303030,#303030);fontSize=13;fontFamily=Open Sans;fontSource=https%3A%2F%2Ffonts.googleapis.com%2Fcss%3Ffamily%3DOpen%2BSans;" vertex="1" parent="WIyWlLk6GJQsqaUBKTNV-1">
          <mxGeometry x="938" y="-684" width="24" height="26" as="geometry" />
        </mxCell>
        <mxCell id="t1vl1GP2TdC1CwPDV5j0-157" value="consulta" style="text;align=left;verticalAlign=top;spacingLeft=4;spacingRight=4;overflow=hidden;rotatable=0;points=[[0,0.5],[1,0.5]];portConstraint=eastwest;rounded=0;shadow=0;html=0;labelBackgroundColor=none;fontColor=light-dark(#303030,#303030);fontFamily=Open Sans;fontSource=https%3A%2F%2Ffonts.googleapis.com%2Fcss%3Ffamily%3DOpen%2BSans;" vertex="1" parent="WIyWlLk6GJQsqaUBKTNV-1">
          <mxGeometry x="656.5" y="-589" width="62" height="26" as="geometry" />
        </mxCell>
        <mxCell id="t1vl1GP2TdC1CwPDV5j0-160" value="" style="endArrow=none;html=1;rounded=0;endFill=0;endSize=10;startFill=0;fontFamily=Open Sans;fontSource=https%3A%2F%2Ffonts.googleapis.com%2Fcss%3Ffamily%3DOpen%2BSans;labelBackgroundColor=none;fontColor=light-dark(#303030,#303030);strokeColor=light-dark(#303030,#303030);" edge="1" parent="WIyWlLk6GJQsqaUBKTNV-1">
          <mxGeometry width="50" height="50" relative="1" as="geometry">
            <mxPoint x="612" y="-355" as="sourcePoint" />
            <mxPoint x="612" y="-509" as="targetPoint" />
          </mxGeometry>
        </mxCell>
        <mxCell id="t1vl1GP2TdC1CwPDV5j0-161" value="" style="endArrow=open;html=1;rounded=0;endFill=0;endSize=10;startFill=0;fontFamily=Open Sans;fontSource=https%3A%2F%2Ffonts.googleapis.com%2Fcss%3Ffamily%3DOpen%2BSans;labelBackgroundColor=none;fontColor=light-dark(#303030,#303030);strokeColor=light-dark(#303030,#303030);" edge="1" parent="WIyWlLk6GJQsqaUBKTNV-1">
          <mxGeometry width="50" height="50" relative="1" as="geometry">
            <mxPoint x="612" y="-355" as="sourcePoint" />
            <mxPoint x="518" y="-355" as="targetPoint" />
          </mxGeometry>
        </mxCell>
        <mxCell id="t1vl1GP2TdC1CwPDV5j0-162" value="consulta" style="text;align=left;verticalAlign=top;spacingLeft=4;spacingRight=4;overflow=hidden;rotatable=0;points=[[0,0.5],[1,0.5]];portConstraint=eastwest;rounded=0;shadow=0;html=0;labelBackgroundColor=none;fontColor=light-dark(#303030,#303030);fontFamily=Open Sans;fontSource=https%3A%2F%2Ffonts.googleapis.com%2Fcss%3Ffamily%3DOpen%2BSans;" vertex="1" parent="WIyWlLk6GJQsqaUBKTNV-1">
          <mxGeometry x="656" y="-535" width="62" height="26" as="geometry" />
        </mxCell>
        <mxCell id="t1vl1GP2TdC1CwPDV5j0-163" value="1" style="text;align=left;verticalAlign=top;spacingLeft=4;spacingRight=4;overflow=hidden;rotatable=0;points=[[0,0.5],[1,0.5]];portConstraint=eastwest;rounded=0;shadow=0;html=0;labelBackgroundColor=none;fontColor=light-dark(#303030,#303030);fontSize=13;fontFamily=Open Sans;fontSource=https%3A%2F%2Ffonts.googleapis.com%2Fcss%3Ffamily%3DOpen%2BSans;" vertex="1" parent="WIyWlLk6GJQsqaUBKTNV-1">
          <mxGeometry x="759" y="-535" width="24" height="26" as="geometry" />
        </mxCell>
        <mxCell id="t1vl1GP2TdC1CwPDV5j0-164" value="1" style="text;align=left;verticalAlign=top;spacingLeft=4;spacingRight=4;overflow=hidden;rotatable=0;points=[[0,0.5],[1,0.5]];portConstraint=eastwest;rounded=0;shadow=0;html=0;labelBackgroundColor=none;fontColor=light-dark(#303030,#303030);fontSize=13;fontFamily=Open Sans;fontSource=https%3A%2F%2Ffonts.googleapis.com%2Fcss%3Ffamily%3DOpen%2BSans;" vertex="1" parent="WIyWlLk6GJQsqaUBKTNV-1">
          <mxGeometry x="518" y="-389" width="24" height="26" as="geometry" />
        </mxCell>
        <mxCell id="t1vl1GP2TdC1CwPDV5j0-166" value="" style="endArrow=open;html=1;rounded=0;endFill=0;endSize=10;startFill=0;fontFamily=Open Sans;fontSource=https%3A%2F%2Ffonts.googleapis.com%2Fcss%3Ffamily%3DOpen%2BSans;labelBackgroundColor=none;fontColor=light-dark(#303030,#303030);strokeColor=light-dark(#303030,#303030);" edge="1" parent="WIyWlLk6GJQsqaUBKTNV-1">
          <mxGeometry width="50" height="50" relative="1" as="geometry">
            <mxPoint x="783" y="-564" as="sourcePoint" />
            <mxPoint x="518" y="-563.71" as="targetPoint" />
          </mxGeometry>
        </mxCell>
        <mxCell id="t1vl1GP2TdC1CwPDV5j0-168" value="" style="endArrow=open;html=1;rounded=0;endFill=0;endSize=10;startFill=0;fontFamily=Open Sans;fontSource=https%3A%2F%2Ffonts.googleapis.com%2Fcss%3Ffamily%3DOpen%2BSans;labelBackgroundColor=none;fontColor=light-dark(#303030,#303030);strokeColor=light-dark(#303030,#303030);entryX=0.999;entryY=0.362;entryDx=0;entryDy=0;entryPerimeter=0;" edge="1" parent="WIyWlLk6GJQsqaUBKTNV-1" target="t1vl1GP2TdC1CwPDV5j0-125">
          <mxGeometry width="50" height="50" relative="1" as="geometry">
            <mxPoint x="613" y="-774" as="sourcePoint" />
            <mxPoint x="519" y="-774" as="targetPoint" />
          </mxGeometry>
        </mxCell>
        <mxCell id="t1vl1GP2TdC1CwPDV5j0-169" value="" style="endArrow=none;html=1;rounded=0;endFill=0;endSize=10;startFill=0;fontFamily=Open Sans;fontSource=https%3A%2F%2Ffonts.googleapis.com%2Fcss%3Ffamily%3DOpen%2BSans;labelBackgroundColor=none;fontColor=light-dark(#303030,#303030);strokeColor=light-dark(#303030,#303030);" edge="1" parent="WIyWlLk6GJQsqaUBKTNV-1">
          <mxGeometry width="50" height="50" relative="1" as="geometry">
            <mxPoint x="613" y="-616" as="sourcePoint" />
            <mxPoint x="613" y="-774" as="targetPoint" />
          </mxGeometry>
        </mxCell>
        <mxCell id="t1vl1GP2TdC1CwPDV5j0-170" value="" style="endArrow=none;html=1;rounded=0;endFill=0;endSize=10;startFill=0;fontFamily=Open Sans;fontSource=https%3A%2F%2Ffonts.googleapis.com%2Fcss%3Ffamily%3DOpen%2BSans;labelBackgroundColor=none;fontColor=light-dark(#303030,#303030);strokeColor=light-dark(#303030,#303030);" edge="1" parent="WIyWlLk6GJQsqaUBKTNV-1">
          <mxGeometry width="50" height="50" relative="1" as="geometry">
            <mxPoint x="783" y="-616" as="sourcePoint" />
            <mxPoint x="612" y="-616" as="targetPoint" />
          </mxGeometry>
        </mxCell>
        <mxCell id="t1vl1GP2TdC1CwPDV5j0-171" value="consulta" style="text;align=left;verticalAlign=top;spacingLeft=4;spacingRight=4;overflow=hidden;rotatable=0;points=[[0,0.5],[1,0.5]];portConstraint=eastwest;rounded=0;shadow=0;html=0;labelBackgroundColor=none;fontColor=light-dark(#303030,#303030);fontFamily=Open Sans;fontSource=https%3A%2F%2Ffonts.googleapis.com%2Fcss%3Ffamily%3DOpen%2BSans;" vertex="1" parent="WIyWlLk6GJQsqaUBKTNV-1">
          <mxGeometry x="656.5" y="-642" width="62" height="26" as="geometry" />
        </mxCell>
        <mxCell id="t1vl1GP2TdC1CwPDV5j0-172" value="1" style="text;align=left;verticalAlign=top;spacingLeft=4;spacingRight=4;overflow=hidden;rotatable=0;points=[[0,0.5],[1,0.5]];portConstraint=eastwest;rounded=0;shadow=0;html=0;labelBackgroundColor=none;fontColor=light-dark(#303030,#303030);fontSize=13;fontFamily=Open Sans;fontSource=https%3A%2F%2Ffonts.googleapis.com%2Fcss%3Ffamily%3DOpen%2BSans;" vertex="1" parent="WIyWlLk6GJQsqaUBKTNV-1">
          <mxGeometry x="759" y="-589" width="24" height="26" as="geometry" />
        </mxCell>
        <mxCell id="t1vl1GP2TdC1CwPDV5j0-173" value="1" style="text;align=left;verticalAlign=top;spacingLeft=4;spacingRight=4;overflow=hidden;rotatable=0;points=[[0,0.5],[1,0.5]];portConstraint=eastwest;rounded=0;shadow=0;html=0;labelBackgroundColor=none;fontColor=light-dark(#303030,#303030);fontSize=13;fontFamily=Open Sans;fontSource=https%3A%2F%2Ffonts.googleapis.com%2Fcss%3Ffamily%3DOpen%2BSans;" vertex="1" parent="WIyWlLk6GJQsqaUBKTNV-1">
          <mxGeometry x="518" y="-597" width="24" height="26" as="geometry" />
        </mxCell>
        <mxCell id="t1vl1GP2TdC1CwPDV5j0-174" value="1" style="text;align=left;verticalAlign=top;spacingLeft=4;spacingRight=4;overflow=hidden;rotatable=0;points=[[0,0.5],[1,0.5]];portConstraint=eastwest;rounded=0;shadow=0;html=0;labelBackgroundColor=none;fontColor=light-dark(#303030,#303030);fontSize=13;fontFamily=Open Sans;fontSource=https%3A%2F%2Ffonts.googleapis.com%2Fcss%3Ffamily%3DOpen%2BSans;" vertex="1" parent="WIyWlLk6GJQsqaUBKTNV-1">
          <mxGeometry x="759" y="-642" width="24" height="26" as="geometry" />
        </mxCell>
        <mxCell id="t1vl1GP2TdC1CwPDV5j0-175" value="1" style="text;align=left;verticalAlign=top;spacingLeft=4;spacingRight=4;overflow=hidden;rotatable=0;points=[[0,0.5],[1,0.5]];portConstraint=eastwest;rounded=0;shadow=0;html=0;labelBackgroundColor=none;fontColor=light-dark(#303030,#303030);fontSize=13;fontFamily=Open Sans;fontSource=https%3A%2F%2Ffonts.googleapis.com%2Fcss%3Ffamily%3DOpen%2BSans;" vertex="1" parent="WIyWlLk6GJQsqaUBKTNV-1">
          <mxGeometry x="519" y="-810" width="24" height="26" as="geometry" />
        </mxCell>
        <mxCell id="t1vl1GP2TdC1CwPDV5j0-177" value="" style="endArrow=none;html=1;rounded=0;endFill=0;endSize=10;startFill=0;fontFamily=Open Sans;fontSource=https%3A%2F%2Ffonts.googleapis.com%2Fcss%3Ffamily%3DOpen%2BSans;labelBackgroundColor=none;fontColor=light-dark(#303030,#303030);strokeColor=light-dark(#303030,#303030);" edge="1" parent="WIyWlLk6GJQsqaUBKTNV-1">
          <mxGeometry width="50" height="50" relative="1" as="geometry">
            <mxPoint x="936" y="-653" as="sourcePoint" />
            <mxPoint x="936" y="-1015" as="targetPoint" />
          </mxGeometry>
        </mxCell>
        <mxCell id="t1vl1GP2TdC1CwPDV5j0-178" value="" style="endArrow=open;html=1;rounded=0;endFill=0;endSize=10;startFill=0;fontFamily=Open Sans;fontSource=https%3A%2F%2Ffonts.googleapis.com%2Fcss%3Ffamily%3DOpen%2BSans;labelBackgroundColor=none;fontColor=light-dark(#303030,#303030);strokeColor=light-dark(#303030,#303030);" edge="1" parent="WIyWlLk6GJQsqaUBKTNV-1">
          <mxGeometry width="50" height="50" relative="1" as="geometry">
            <mxPoint x="936" y="-1014" as="sourcePoint" />
            <mxPoint x="635" y="-1013.54" as="targetPoint" />
          </mxGeometry>
        </mxCell>
        <mxCell id="t1vl1GP2TdC1CwPDV5j0-180" value="persiste" style="text;align=left;verticalAlign=top;spacingLeft=4;spacingRight=4;overflow=hidden;rotatable=0;points=[[0,0.5],[1,0.5]];portConstraint=eastwest;rounded=0;shadow=0;html=0;labelBackgroundColor=none;fontColor=light-dark(#303030,#303030);fontFamily=Open Sans;fontSource=https%3A%2F%2Ffonts.googleapis.com%2Fcss%3Ffamily%3DOpen%2BSans;" vertex="1" parent="WIyWlLk6GJQsqaUBKTNV-1">
          <mxGeometry x="770" y="-1040" width="62" height="26" as="geometry" />
        </mxCell>
        <mxCell id="t1vl1GP2TdC1CwPDV5j0-181" value="1" style="text;align=left;verticalAlign=top;spacingLeft=4;spacingRight=4;overflow=hidden;rotatable=0;points=[[0,0.5],[1,0.5]];portConstraint=eastwest;rounded=0;shadow=0;html=0;labelBackgroundColor=none;fontColor=light-dark(#303030,#303030);fontSize=13;fontFamily=Open Sans;fontSource=https%3A%2F%2Ffonts.googleapis.com%2Fcss%3Ffamily%3DOpen%2BSans;" vertex="1" parent="WIyWlLk6GJQsqaUBKTNV-1">
          <mxGeometry x="634" y="-1047" width="24" height="26" as="geometry" />
        </mxCell>
        <mxCell id="t1vl1GP2TdC1CwPDV5j0-183" value="manipula" style="text;align=left;verticalAlign=top;spacingLeft=4;spacingRight=4;overflow=hidden;rotatable=0;points=[[0,0.5],[1,0.5]];portConstraint=eastwest;rounded=0;shadow=0;html=0;labelBackgroundColor=none;fontColor=light-dark(#303030,#303030);fontFamily=Open Sans;fontSource=https%3A%2F%2Ffonts.googleapis.com%2Fcss%3Ffamily%3DOpen%2BSans;" vertex="1" parent="WIyWlLk6GJQsqaUBKTNV-1">
          <mxGeometry x="1176.82" y="-782" width="72" height="26" as="geometry" />
        </mxCell>
        <mxCell id="t1vl1GP2TdC1CwPDV5j0-185" value="BACK-END" style="text;align=left;verticalAlign=top;spacingLeft=4;spacingRight=4;overflow=hidden;rotatable=0;points=[[0,0.5],[1,0.5]];portConstraint=eastwest;rounded=0;shadow=0;html=0;labelBackgroundColor=none;fontColor=default;fontFamily=Open Sans;fontSource=https%3A%2F%2Ffonts.googleapis.com%2Fcss%3Ffamily%3DOpen%2BSans;fontSize=25;fontStyle=1;horizontal=1;" vertex="1" parent="WIyWlLk6GJQsqaUBKTNV-1">
          <mxGeometry x="1227" y="-1170" width="150" height="42" as="geometry" />
        </mxCell>
      </root>
    </mxGraphModel>
  </diagram>
</mxfile>
